<svg width="16" height="16" viewBox="0 0 16 16" fill="none" xmlns="http://www.w3.org/2000/svg">
<path d="M7.99998 3.08093C9.60207 3.08093 9.79183 3.08693 10.4246 3.11583C11.0096 3.14252 11.3273 3.24015 11.5387 3.32238C11.8189 3.4313 12.0187 3.56115 12.2286 3.77111C12.4386 3.98108 12.5687 4.18092 12.6774 4.46106C12.7596 4.67246 12.8572 4.99015 12.8839 5.57521C12.9128 6.20793 12.9188 6.39764 12.9188 7.99978C12.9188 9.60193 12.9128 9.79159 12.8839 10.4243C12.8572 11.0094 12.7596 11.3271 12.6774 11.5385C12.5685 11.8187 12.4386 12.0184 12.2286 12.2284C12.0187 12.4383 11.8188 12.5685 11.5387 12.6771C11.3273 12.7594 11.0096 12.857 10.4246 12.8837C9.79188 12.9125 9.60212 12.9186 7.99998 12.9186C6.39783 12.9186 6.20817 12.9126 5.57545 12.8837C4.99039 12.857 4.6727 12.7594 4.4613 12.6771C4.18111 12.5682 3.98132 12.4383 3.77135 12.2284C3.56144 12.0184 3.4313 11.8186 3.32262 11.5385C3.24035 11.3271 3.14276 11.0094 3.11607 10.4243C3.08722 9.79164 3.08117 9.60188 3.08117 7.99978C3.08117 6.39769 3.08717 6.20798 3.11607 5.57521C3.14276 4.99015 3.24039 4.67246 3.32262 4.46106C3.43154 4.18087 3.56139 3.98108 3.77135 3.77111C3.98132 3.5612 4.18115 3.43106 4.4613 3.32238C4.6727 3.24015 4.99039 3.14252 5.57545 3.11583C6.20812 3.08722 6.39788 3.08093 7.99998 3.08093ZM7.99998 2C6.37047 2 6.16607 2.00696 5.52615 2.03605C4.88742 2.06514 4.45141 2.16667 4.06979 2.31499C3.67516 2.46841 3.34067 2.67358 3.0071 3.0071C2.67358 3.34067 2.46822 3.67516 2.31499 4.06979C2.16662 4.45146 2.06514 4.88766 2.03605 5.52615C2.00696 6.16612 2 6.37052 2 7.99998C2 9.62943 2.00696 9.83388 2.03605 10.4738C2.06514 11.1125 2.16667 11.5485 2.31499 11.9302C2.46841 12.3248 2.67358 12.6593 3.0071 12.9929C3.34067 13.3264 3.6754 13.5315 4.06979 13.685C4.45146 13.8333 4.88766 13.9348 5.52615 13.9639C6.16607 13.993 6.37047 14 7.99998 14C9.62948 14 9.83388 13.993 10.4738 13.9639C11.1125 13.9348 11.5485 13.8333 11.9302 13.685C12.3248 13.5315 12.6593 13.3264 12.9929 12.9929C13.3264 12.6593 13.5315 12.3246 13.685 11.9302C13.8333 11.5485 13.9348 11.1123 13.9639 10.4738C13.993 9.83388 14 9.62948 14 7.99998C14 6.37047 13.993 6.16607 13.9639 5.52615C13.9348 4.88742 13.8333 4.45141 13.685 4.06979C13.5315 3.67516 13.3264 3.34067 12.9929 3.0071C12.6593 2.67358 12.3246 2.46841 11.9302 2.31499C11.5485 2.16662 11.1123 2.06514 10.4738 2.03605C9.83393 2.00696 9.62948 2 7.99998 2ZM7.99998 4.91896C6.29832 4.91896 4.91896 6.29832 4.91896 7.99998C4.91896 9.70163 6.29832 11.081 7.99998 11.081C9.70163 11.081 11.081 9.70163 11.081 7.99998C11.081 6.29832 9.70163 4.91896 7.99998 4.91896ZM7.99998 10.0001C6.89548 10.0001 5.99989 9.10481 5.99989 8.00002C5.99989 6.89524 6.89548 5.99994 7.99998 5.99994C9.10447 5.99994 10.0001 6.89524 10.0001 8.00002C10.0001 9.10481 9.10447 10.0001 7.99998 10.0001ZM11.2027 4.07728C10.805 4.07728 10.4827 4.39952 10.4827 4.79727C10.4827 5.19502 10.805 5.51732 11.2027 5.51732C11.6005 5.51732 11.9228 5.19502 11.9228 4.79727C11.9228 4.39952 11.6005 4.07728 11.2027 4.07728Z" fill="url(#paint0_linear_449_8347)"/>
<defs>
<linearGradient id="paint0_linear_449_8347" x1="3.5" y1="2.5" x2="10" y2="14" gradientUnits="userSpaceOnUse">
<stop stop-color="#6C21F5"/>
<stop offset="0.335066" stop-color="#BC28DA"/>
<stop offset="0.689049" stop-color="#EA376C"/>
<stop offset="1" stop-color="#F7CE46"/>
</linearGradient>
</defs>
</svg>
