<svg width="16" height="16" viewBox="0 0 16 16" fill="none" xmlns="http://www.w3.org/2000/svg">
<path d="M14.6663 8.00016C14.6663 4.3183 11.6815 1.3335 7.99968 1.3335C4.31781 1.3335 1.33301 4.3183 1.33301 8.00016C1.33301 11.1266 3.48554 13.75 6.38927 14.4706V10.0375H5.01461V8.00016H6.38927V7.1223C6.38927 4.85323 7.41621 3.8015 9.64394 3.8015C10.0663 3.8015 10.7951 3.88443 11.0933 3.9671V5.81376C10.9359 5.79723 10.6626 5.78896 10.3231 5.78896C9.23008 5.78896 8.80767 6.2031 8.80767 7.27963V8.00016H10.9853L10.6111 10.0375H8.80767V14.618C12.1087 14.2194 14.6666 11.4087 14.6666 8.00016H14.6663Z" fill="#0866FF"/>
<path d="M10.6112 10.0373L10.9853 7.99994H8.80772V7.2794C8.80772 6.20287 9.23012 5.78874 10.3232 5.78874C10.6626 5.78874 10.936 5.797 11.0933 5.81354V3.96687C10.7952 3.88394 10.0664 3.80127 9.64398 3.80127C7.41625 3.80127 6.38932 4.853 6.38932 7.12207V7.99994H5.01465V10.0373H6.38932V14.4703C6.90505 14.5983 7.44452 14.6666 7.99972 14.6666C8.27305 14.6666 8.54265 14.6498 8.80745 14.6178V10.0373H10.6109H10.6112Z" fill="#E8EBE8"/>
</svg>
